<?xml version="1.0" encoding="utf-8"?>
<!-- Generator: Adobe Illustrator 24.1.0, SVG Export Plug-In . SVG Version: 6.00 Build 0)  -->
<svg version="1.1" id="Capa_1" xmlns="http://www.w3.org/2000/svg" xmlns:xlink="http://www.w3.org/1999/xlink" x="0px" y="0px"
	 viewBox="0 0 900 900" style="enable-background:new 0 0 900 900;" xml:space="preserve">
<style type="text/css">
	.st0{fill:#EDEDED;}
	.st1{fill:#D9D7CA;}
	.st2{fill:#CC4B4C;}
	.st3{enable-background:new    ;}
	.st4{fill:#FFFFFF;}
</style>
<g>
	<path class="st0" d="M568.6,88.8H185.5c-10.7,0-19.3,8.6-19.3,25.4v700.5c0,4.6,8.6,13.2,19.3,13.2h528.9
		c10.7,0,19.3-8.6,19.3-13.2V260.1c0-9.2-1.2-12.1-3.4-14.3L576.8,92.2C574.6,90.1,571.7,88.8,568.6,88.8z"/>
	<polygon class="st1" points="572.2,90.8 572.2,247.2 728.6,247.2 	"/>
	<path class="st2" d="M343.7,510L343.7,510c-3.9,0-7.7-1.3-10.9-3.7c-11.7-8.8-13.3-18.6-12.5-25.2c2-18.3,24.7-37.5,67.4-57
		c16.9-37.1,33-82.8,42.6-121c-11.2-24.4-22.1-56.2-14.2-74.8c2.8-6.5,6.3-11.5,12.8-13.7c2.6-0.9,9-1.9,11.4-1.9
		c5.7,0,10.7,7.3,14.2,11.8c3.3,4.2,10.8,13.2-4.2,76.6c15.2,31.3,36.7,63.3,57.3,85.1c14.8-2.7,27.4-4,37.8-4
		c17.6,0,28.3,4.1,32.7,12.6c3.6,7,2.1,15.2-4.4,24.3c-6.3,8.8-14.9,13.4-25,13.4c-13.7,0-29.6-8.6-47.4-25.7
		c-31.9,6.7-69.2,18.6-99.4,31.8c-9.4,20-18.4,36-26.8,47.8C363.5,502.5,353.5,510,343.7,510z M373.7,452.3
		c-24.1,13.5-33.9,24.6-34.6,30.9c-0.1,1-0.4,3.8,4.9,7.8C345.6,490.4,355.4,486,373.7,452.3z M527.1,402.3
		c9.2,7.1,11.4,10.6,17.4,10.6c2.6,0,10.1-0.1,13.6-5c1.7-2.4,2.3-3.9,2.6-4.7c-1.4-0.7-3.2-2.2-13.2-2.2
		C541.8,401.1,534.7,401.3,527.1,402.3z M443.1,328.2c-8,27.8-18.7,57.9-30.1,85.1c23.5-9.1,49.1-17.1,73.1-22.7
		C470.9,373,455.7,350.9,443.1,328.2z M436.2,233c-1.1,0.4-15,19.8,1.1,36.2C448,245.4,436.7,232.8,436.2,233z"/>
	<path class="st2" d="M714.5,828H185.5c-10.7,0-19.3-8.6-19.3-19.3V603.6h567.6v205.1C733.8,819.3,725.1,828,714.5,828z"/>
	<g class="st3">
		<path class="st4" d="M327.4,665.2c6.7-1.1,15.5-2.1,26.7-2.1c13.8,0,23.8,3.2,30.2,9c5.8,5.1,9.4,13,9.4,22.6
			c0,9.8-2.9,17.4-8.3,23c-7.5,7.8-19.4,11.8-33,11.8c-4.2,0-8-0.2-11.2-1v43.2h-13.9V665.2z M341.3,717.2c3,0.8,6.9,1.1,11.5,1.1
			c16.8,0,27-8.3,27-22.9c0-14.4-10.2-21.3-25.4-21.3c-6.1,0-10.7,0.5-13.1,1.1V717.2z"/>
		<path class="st4" d="M412.5,665.5c8.5-1.4,18.6-2.4,29.6-2.4c20,0,34.2,4.8,43.7,13.4c9.8,8.8,15.4,21.3,15.4,38.7
			c0,17.6-5.6,32-15.5,41.9c-10.2,10.1-26.9,15.5-47.8,15.5c-10.1,0-18.2-0.5-25.3-1.3V665.5z M426.4,760.8
			c3.5,0.5,8.6,0.6,14.1,0.6c29.9,0,45.9-16.6,45.9-45.8c0.2-25.4-14.2-41.6-43.7-41.6c-7.2,0-12.6,0.6-16.3,1.4V760.8z"/>
		<path class="st4" d="M518.9,663.9h58.1v11.7h-44v35.8h40.6v11.5h-40.6v48.8h-14.1V663.9z"/>
	</g>
</g>
</svg>
