<?xml version="1.0" encoding="utf-8"?>
<!-- Generator: Adobe Illustrator 24.1.0, SVG Export Plug-In . SVG Version: 6.00 Build 0)  -->
<svg version="1.1" id="Capa_1" xmlns="http://www.w3.org/2000/svg" xmlns:xlink="http://www.w3.org/1999/xlink" x="0px" y="0px"
	 viewBox="0 0 900 900" style="enable-background:new 0 0 900 900;" xml:space="preserve">
<style type="text/css">
	.st0{fill:none;stroke:#B38E5D;stroke-width:20;stroke-linecap:round;stroke-linejoin:round;stroke-miterlimit:10;}
</style>
<g>
	<g>
		<polyline class="st0" points="601.3,308.3 602.6,203.8 685.3,159.2 452.1,92.8 221.8,164.9 304.1,208.6 305.5,308.3 		"/>
		<path class="st0" d="M304.1,208.6c0,0,130-84.3,298.5-4.9"/>
	</g>
	<line class="st0" x1="222.4" y1="165.8" x2="222.4" y2="216.1"/>
	<circle class="st0" cx="222.4" cy="244.8" r="28.7"/>
	<circle class="st0" cx="453.4" cy="535.2" r="268"/>
	<path class="st0" d="M306.4,485.6c0,0-14.2,13.4-9,18.7c5.2,5.2,25.4,17.9,26.1,25.4s25.4,29.8,34.3,26.9c9-3,14.2-1.5,9-14.2
		c-5.2-12.7-8.2-29.1-17.2-38.8c-9-9.7-26.9-44-24.6-48.5c2.2-4.5,11.9-8.2,21.6,3.7c9.7,11.9,38,54.5,38,54.5s-6.7,6,0,10.4
		c6.7,4.5,34.3,35.1,31.3,48.5c-3,13.4,0,23.8,11.9,29.8c11.9,6,17.2,16.4,17.2,16.4s29.1,17.2,42.5,17.2s37.3,4.5,42.5,0
		c5.2-4.5,23.9,15.7,29.1,14.9c5.2-0.7,11.9-10.4,13.4-21.6c1.5-11.2,23.1,0,31.3-14.2c8.2-14.2,27.6-35.1,25.4-43.3
		c-2.2-8.2-36.6-18.7-46.3-4.5c-9.7,14.2,0.7,17.9-9,22.4c-9.7,4.5-31.8,23.3-58.8-3.9c-23.1-23.3,0.6-62.5,0.6-62.5
		s0-18.7-9.7-19.4c-9.7-0.7-25.4-23.1-25.4-23.1s-3-17.9-11.2-17.9c-8.2,0-29.1,9-29.1,9s-3-0.7-8.2-7.5
		c-5.2-6.7-13.4-26.9-26.9-26.9s-51.5-3-57.4-7.5s-37.3-9.7-41-8.2c-3.7,1.5-11.3,9.7-10.9,18.7S306.4,485.6,306.4,485.6z"/>
	<polyline class="st0" points="200.9,270.2 178.7,315.2 266.7,315.2 243.2,264.6 	"/>
</g>
</svg>
