<?xml version="1.0" encoding="utf-8"?>
<!-- Generator: Adobe Illustrator 16.0.0, SVG Export Plug-In . SVG Version: 6.00 Build 0)  -->
<!DOCTYPE svg PUBLIC "-//W3C//DTD SVG 1.0//EN" "http://www.w3.org/TR/2001/REC-SVG-20010904/DTD/svg10.dtd">
<svg version="1.0" id="Layer_1" xmlns="http://www.w3.org/2000/svg" xmlns:xlink="http://www.w3.org/1999/xlink" x="0px" y="0px"
	 width="900px" height="900px" viewBox="0 0 900 900" enable-background="new 0 0 900 900" xml:space="preserve">
<g>
	<path fill-rule="evenodd" clip-rule="evenodd" fill="#6D6E71" d="M314.201,318.337c2.43-5.699-1.632-8.059-6.759-10.501
		c-13.454-6.409-26.744-13.172-39.993-19.999c-3.087-1.59-4.918-1.509-7.674,1.053c-13.868,12.894-33.917,14.481-49.611,4.361
		c-15.3-9.865-22.122-29.015-16.59-46.563c5.524-17.519,21.785-28.957,40.412-28.425c18.075,0.516,33.83,13.464,38.132,31.467
		c1.069,4.476,1.518,9.102,0.661,13.642c-0.643,3.406,0.661,4.887,3.605,6.316c14.651,7.118,29.216,14.421,43.736,21.805
		c2.737,1.391,4.43,1.718,7.074-0.768c13.677-12.854,31.527-14.928,47.863-5.668c3.025,1.714,4.671,1.283,7.155-0.811
		c18.127-15.269,36.364-30.409,54.666-45.468c2.648-2.179,3.323-3.905,2.101-7.444c-6.479-18.756,0.978-38.771,17.675-48.608
		c16.49-9.715,37.64-6.525,50.78,7.661c13.078,14.119,14.295,35.357,2.7,51.647c-1.791,2.516-1.965,4.082-0.23,6.672
		c24.803,37.033,49.51,74.129,74.151,111.27c1.676,2.527,3.16,3.456,6.272,2.453c4.771-1.539,9.829-1.89,14.758-0.786
		c3.797,0.85,5.522-0.584,7.306-3.873c26.447-48.746,53.029-97.419,79.671-146.059c1.708-3.118,1.982-5.091-0.687-8.164
		c-13.148-15.136-13.151-37.509-0.452-52.649c12.94-15.427,34.615-19.425,51.877-9.57c17.406,9.938,25.181,30.603,18.589,49.408
		c-6.552,18.692-25.49,29.982-45.393,26.747c-3.004-0.488-4.271,0.357-5.574,2.756c-26.964,49.597-53.927,99.194-81.106,148.672
		c-1.954,3.558-0.004,4.885,1.694,6.944c11.122,13.49,12.791,31.353,4.358,46.303c-8.163,14.472-24.85,22.895-40.705,20.547
		c-17.23-2.551-30.701-14.526-34.501-31.262c-2.735-12.049-0.612-23.417,6.876-33.389c1.915-2.55,1.875-4.089,0.167-6.641
		c-24.799-37.036-49.51-74.13-74.131-111.284c-1.688-2.548-3.112-3.314-6.192-2.475c-10.706,2.917-20.948,1.345-30.351-4.534
		c-2.316-1.449-3.693-1.248-5.667,0.407c-18.776,15.736-37.561,31.465-56.525,46.971c-2.854,2.334-1.848,4.182-1.02,6.682
		c8.086,24.396-6.772,49.417-31.758,53.579C336.021,365.015,313.38,345.175,314.201,318.337z"/>
	<path fill-rule="evenodd" clip-rule="evenodd" fill="#DDDDDD" d="M477.242,700.764c-93.021,0-186.042-0.087-279.062,0.217
		c-5.62,0.019-6.943-2.55-6.803-11.092c0.355-21.775,0.105-21.786,13.729-21.786c183.453,0,366.905-0.01,550.358,0.028
		c8.678,0,7.472-1.661,7.523,12.28c0.074,20.353,0.023,20.353-12.656,20.353C659.302,700.764,568.272,700.764,477.242,700.764z"/>
	<path fill-rule="evenodd" clip-rule="evenodd" fill="#DDDDDD" d="M722.478,157.117c11.463,0.072,20.243,9.078,20.101,20.618
		c-0.136,11.073-9.176,20.072-20.188,20.096c-11.203,0.025-20.536-9.296-20.515-20.488
		C701.897,165.996,711.015,157.045,722.478,157.117z"/>
	<path fill-rule="evenodd" clip-rule="evenodd" fill="#DDDDDD" d="M477.639,197.881c11.389,0.104,20.153,9.216,19.974,20.767
		c-0.173,11.157-9.082,19.923-20.255,19.93c-11.206,0.008-20.564-9.372-20.464-20.509
		C456.995,206.851,466.318,197.778,477.639,197.881z"/>
	<path fill-rule="evenodd" clip-rule="evenodd" fill="#DDDDDD" d="M354.691,340.514c-11.503-0.086-20.199-9.028-20.06-20.626
		c0.132-11.008,9.195-20.041,20.185-20.115c11.087-0.075,20.549,9.391,20.528,20.538C375.324,331.617,366.142,340.6,354.691,340.514
		z"/>
	<path fill-rule="evenodd" clip-rule="evenodd" fill="#DDDDDD" d="M599.623,381.64c11.424-0.089,20.687,8.953,20.698,20.207
		c0.012,11.088-9.474,20.572-20.554,20.55c-10.977-0.021-20.02-9.032-20.182-20.108C579.418,390.711,588.133,381.729,599.623,381.64
		z"/>
	<path fill-rule="evenodd" clip-rule="evenodd" fill="#DDDDDD" d="M252.683,259.062c-0.012,11.485-8.972,20.362-20.458,20.269
		c-11.01-0.09-20.162-9.14-20.286-20.058c-0.127-11.162,9.188-20.605,20.366-20.648
		C243.695,238.583,252.694,247.607,252.683,259.062z"/>
	<path fill-rule="evenodd" clip-rule="evenodd" fill="#A02249" d="M753.045,484.262c0.001,48.6-0.069,97.198,0.104,145.798
		c0.019,4.967-0.771,6.904-6.402,6.753c-16.52-0.443-33.062-0.282-49.59-0.07c-4.118,0.053-5.41-1.08-5.405-5.311
		c0.11-98.593,0.114-197.186-0.007-295.779c-0.006-4.406,1.554-5.23,5.526-5.184c16.529,0.193,33.065,0.265,49.592-0.032
		c4.908-0.088,6.316,1.223,6.297,6.235C752.969,385.868,753.045,435.065,753.045,484.262z"/>
	<path fill-rule="evenodd" clip-rule="evenodd" fill="#A02249" d="M446.899,503.974c0-42.02,0.119-84.041-0.141-126.059
		c-0.034-5.647,1.675-6.867,6.97-6.753c15.725,0.338,31.469,0.375,47.191-0.015c5.576-0.138,7.312,1.051,7.29,7.031
		c-0.241,68.506-0.153,137.013-0.153,205.52c0,15.932-0.151,31.865,0.1,47.793c0.068,4.295-1.313,5.307-5.402,5.254
		c-16.727-0.215-33.46-0.301-50.182,0.039c-5.033,0.104-5.77-1.769-5.756-6.152C446.955,588.412,446.899,546.193,446.899,503.974z"
		/>
	<path fill-rule="evenodd" clip-rule="evenodd" fill="#A02249" d="M263.055,524.158c0,35.634-0.074,71.267,0.098,106.899
		c0.021,4.328-0.886,5.797-5.519,5.715c-16.915-0.298-33.841-0.229-50.759-0.034c-3.895,0.044-5.029-1.076-5.023-5.005
		c0.11-71.465,0.111-142.931,0-214.396c-0.007-4.059,0.951-5.479,5.247-5.419c16.917,0.239,33.842,0.238,50.759,0
		c4.23-0.06,5.307,1.192,5.288,5.341C262.987,452.893,263.055,488.525,263.055,524.158z"/>
	<path fill-rule="evenodd" clip-rule="evenodd" fill="#A02249" d="M324.169,554.939c0-25.098,0.11-50.195-0.099-75.29
		c-0.039-4.722,0.883-6.651,6.137-6.546c16.525,0.334,33.064,0.284,49.593,0.019c4.567-0.073,5.657,1.388,5.646,5.776
		c-0.143,50.791-0.131,101.582-0.014,152.374c0.009,3.999-0.869,5.542-5.22,5.48c-16.928-0.241-33.861-0.229-50.789-0.005
		c-4.174,0.056-5.38-1.112-5.349-5.323C324.264,605.931,324.169,580.435,324.169,554.939z"/>
	<path fill-rule="evenodd" clip-rule="evenodd" fill="#A02249" d="M569.164,595.415c0-11.732,0.124-23.467-0.072-35.196
		c-0.062-3.721,0.793-5.214,4.891-5.161c17.099,0.218,34.203,0.19,51.303,0.016c3.815-0.039,5.131,0.991,5.104,4.976
		c-0.167,24.06-0.133,48.122-0.024,72.183c0.015,3.268-0.81,4.525-4.314,4.494c-17.497-0.157-34.999-0.194-52.496,0.021
		c-4.005,0.049-4.489-1.609-4.448-4.942C569.254,619.677,569.164,607.545,569.164,595.415z"/>
</g>
</svg>
