<?xml version="1.0" encoding="utf-8"?>
<!-- Generator: Adobe Illustrator 23.0.0, SVG Export Plug-In . SVG Version: 6.00 Build 0)  -->
<svg version="1.1" id="Capa_1" xmlns="http://www.w3.org/2000/svg" xmlns:xlink="http://www.w3.org/1999/xlink" x="0px" y="0px"
	 viewBox="0 0 900 900" style="enable-background:new 0 0 900 900;" xml:space="preserve">
<style type="text/css">
	.st0{fill:#EDEDED;}
	.st1{fill:#388E3C;}
	.st2{fill:#2E7D32;}
	.st3{enable-background:new    ;}
	.st4{fill:#FFFFFF;}
	.st5{font-family:'Verdana';}
	.st6{font-size:110px;}
</style>
<g>
	<path class="st0" d="M774.7,688.2h-303c-12,0-21.7-9.7-21.7-21.7s0-421,0-433s9.7-21.7,21.7-21.7h303.1c12,0,21.7,9.7,21.7,21.7
		v433C796.4,678.4,786.7,688.2,774.7,688.2z"/>
	<g>
		<path class="st1" d="M618.2,347.8H556c-8.5,0-15.5-9.7-15.5-21.7s7-21.7,15.5-21.7h62.2c8.5,0,15.5,9.7,15.5,21.7
			C633.8,338.1,626.8,347.8,618.2,347.8z"/>
		<path class="st1" d="M618.2,434.3H556c-8.5,0-15.5-9.7-15.5-21.7s7-21.7,15.5-21.7h62.2c8.5,0,15.5,9.7,15.5,21.7
			S626.8,434.3,618.2,434.3z"/>
		<path class="st1" d="M618.2,521H556c-8.5,0-15.5-9.7-15.5-21.7s7-21.7,15.5-21.7h62.2c8.5,0,15.5,9.7,15.5,21.7
			C633.8,511.3,626.8,521,618.2,521z"/>
		<path class="st1" d="M618.2,607.6H556c-8.5,0-15.5-9.7-15.5-21.7s7-21.7,15.5-21.7h62.2c8.5,0,15.5,9.7,15.5,21.7
			C633.8,597.8,626.8,607.6,618.2,607.6z"/>
		<path class="st1" d="M711.5,347.8h-31.1c-8.5,0-15.5-9.7-15.5-21.7s7-21.7,15.5-21.7h31.1c8.5,0,15.5,9.7,15.5,21.7
			C727,338.1,720.1,347.8,711.5,347.8z"/>
		<path class="st1" d="M711.5,434.3h-31.1c-8.5,0-15.5-9.7-15.5-21.7s7-21.7,15.5-21.7h31.1c8.5,0,15.5,9.7,15.5,21.7
			S720.1,434.3,711.5,434.3z"/>
		<path class="st1" d="M711.5,521h-31.1c-8.5,0-15.5-9.7-15.5-21.7s7-21.7,15.5-21.7h31.1c8.5,0,15.5,9.7,15.5,21.7
			S720.1,521,711.5,521z"/>
		<path class="st1" d="M711.5,607.6h-31.1c-8.5,0-15.5-9.7-15.5-21.7s7-21.7,15.5-21.7h31.1c8.5,0,15.5,9.7,15.5,21.7
			C727,597.8,720.1,607.6,711.5,607.6z"/>
	</g>
	<path class="st2" d="M485.5,130.2c-4.9-4.1-11.6-5.9-17.8-4.6l-346.4,65c-10.3,1.9-17.7,10.8-17.7,21.2v476.3
		c0,10.4,7.4,19.3,17.7,21.2l346.4,65c1.3,0.3,2.7,0.4,4,0.4c5,0,9.9-1.7,13.8-5c5-4.1,7.9-10.3,7.9-16.7V146.9
		C493.3,140.4,490.5,134.4,485.5,130.2z"/>
	<g class="st3">
		<text transform="matrix(1 0 0 1 179.2401 494.9601)" class="st4 st5 st6">CSV</text>
	</g>
</g>
</svg>
