<?xml version="1.0" encoding="utf-8"?>
<!-- Generator: Adobe Illustrator 24.1.0, SVG Export Plug-In . SVG Version: 6.00 Build 0)  -->
<svg version="1.1" id="Capa_1" xmlns="http://www.w3.org/2000/svg" xmlns:xlink="http://www.w3.org/1999/xlink" x="0px" y="0px"
	 viewBox="0 0 900 900" style="enable-background:new 0 0 900 900;" xml:space="preserve">
<style type="text/css">
	.st0{fill:none;stroke:#B38E5D;stroke-width:20;stroke-linecap:round;stroke-linejoin:round;stroke-miterlimit:10;}
</style>
<g>
	<g>
		<polyline class="st0" points="620.1,387.5 602.6,282.9 685.3,238.4 452.1,167 221.8,244 304.1,287.8 288.8,387.5 		"/>
		<path class="st0" d="M304.1,287.8c0,0,130-84.3,298.5-4.9"/>
	</g>
	<line class="st0" x1="680.3" y1="242" x2="680.3" y2="292.3"/>
	<circle class="st0" cx="680.3" cy="321" r="28.7"/>
	<g>
		<rect x="147.7" y="390" class="st0" width="523.1" height="86.3"/>
		<rect x="181.1" y="628.5" class="st0" width="523.1" height="94.3"/>
		<rect x="229.2" y="480.2" class="st0" width="523.1" height="145.4"/>
		<rect x="256.2" y="626.8" class="st0" width="47.3" height="97.2"/>
		<rect x="310.9" y="480.2" class="st0" width="47.3" height="148.3"/>
		<rect x="216.3" y="390" class="st0" width="47.3" height="90.2"/>
		<rect x="555.1" y="390" class="st0" width="47.3" height="90.2"/>
		<rect x="621.1" y="480.2" class="st0" width="47.3" height="148.3"/>
	</g>
</g>
</svg>
