<?xml version="1.0" encoding="utf-8"?>
<!-- Generator: Adobe Illustrator 16.0.0, SVG Export Plug-In . SVG Version: 6.00 Build 0)  -->
<!DOCTYPE svg PUBLIC "-//W3C//DTD SVG 1.0//EN" "http://www.w3.org/TR/2001/REC-SVG-20010904/DTD/svg10.dtd">
<svg version="1.0" id="Layer_1" xmlns="http://www.w3.org/2000/svg" xmlns:xlink="http://www.w3.org/1999/xlink" x="0px" y="0px"
	 width="900px" height="900px" viewBox="0 0 900 900" enable-background="new 0 0 900 900" xml:space="preserve">
<g>
	<path fill="#DDDDDD" d="M152,648.945c0-92.322,0-184.644,0-276.966c1.346-1.399,2.996-2.008,4.931-2.03
		c1.998-0.023,3.996-0.056,5.994-0.056c163.521-0.001,327.043-0.007,490.564,0.04c3.415,0.001,7.041-0.887,10.173,1.408
		c1.345,1.597,0.742,3.513,0.743,5.28c0.032,88.276-0.392,176.555,0.23,264.827c0.256,36.349-33.218,62.739-62.773,62.672
		c-129.249-0.291-258.499-0.107-387.749-0.14c-25.821-0.006-50.573-17.299-59.519-41.376
		C152.956,658.191,153.453,653.385,152,648.945z"/>
	<path fill-rule="evenodd" clip-rule="evenodd" fill="#A02249" d="M663.762,371.743c-168.259,0.01-336.519,0.02-504.778,0.038
		c-2.328,0.001-4.656,0.13-6.983,0.198c0-28.33,0-56.659,0-84.989c0.968-15.413,7.745-27.991,18.933-38.323
		c12.236-11.299,26.736-17.621,43.403-17.639c129.108-0.142,258.216-0.128,387.324-0.035c26.429,0.02,51.623,18.311,60.371,43.271
		c2.02,5.761,2.256,11.801,2.308,17.73c0.223,25.487,0.101,50.976,0.078,76.464C664.415,369.573,664.811,370.817,663.762,371.743z"
		/>
	<path fill-rule="evenodd" clip-rule="evenodd" fill="#FEFEFE" d="M349.065,414.03c10.823,0,21.649,0.142,32.469-0.072
		c4.184-0.083,5.5,1.453,5.45,5.539c-0.178,14.318-0.179,28.641,0,42.958c0.051,4.097-1.293,5.557-5.459,5.527
		c-21.646-0.151-43.293-0.125-64.939-0.014c-3.39,0.017-4.708-0.95-4.67-4.524c0.156-14.984,0.157-29.972-0.001-44.957
		c-0.038-3.587,1.302-4.563,4.682-4.515C327.417,414.127,338.242,414.03,349.065,414.03z"/>
	<path fill-rule="evenodd" clip-rule="evenodd" fill="#FEFEFE" d="M466.544,467.913c-10.657-0.001-21.316-0.126-31.969,0.064
		c-3.989,0.071-5.686-1.08-5.629-5.358c0.195-14.484,0.171-28.974,0.012-43.459c-0.043-3.949,1.428-5.21,5.28-5.188
		c21.646,0.122,43.293,0.13,64.939-0.011c3.71-0.024,4.893,1.156,4.849,4.863c-0.172,14.651-0.224,29.308,0.023,43.957
		c0.074,4.369-1.595,5.285-5.536,5.205C487.86,467.771,477.2,467.913,466.544,467.913z"/>
	<path fill-rule="evenodd" clip-rule="evenodd" fill="#FEFEFE" d="M349.066,510.018c10.823,0,21.649,0.143,32.469-0.071
		c4.185-0.083,5.5,1.455,5.449,5.54c-0.178,14.317-0.179,28.641,0,42.958c0.051,4.098-1.295,5.556-5.46,5.526
		c-21.646-0.151-43.293-0.125-64.939-0.014c-3.391,0.018-4.708-0.952-4.669-4.525c0.156-14.984,0.158-29.973-0.001-44.957
		c-0.038-3.589,1.304-4.562,4.683-4.515C327.418,510.114,338.243,510.018,349.066,510.018z"/>
	<path fill-rule="evenodd" clip-rule="evenodd" fill="#FEFEFE" d="M466.611,563.899c-10.823,0-21.648-0.12-32.469,0.063
		c-3.96,0.067-5.221-1.444-5.182-5.288c0.148-14.485,0.151-28.974-0.001-43.459c-0.041-3.874,1.283-5.282,5.209-5.259
		c21.812,0.128,43.625,0.106,65.439,0.013c3.176-0.014,4.429,0.953,4.4,4.274c-0.128,15.151-0.128,30.305,0.001,45.457
		c0.027,3.351-1.28,4.283-4.43,4.247C488.592,563.82,477.602,563.898,466.611,563.899z"/>
	<path fill-rule="evenodd" clip-rule="evenodd" fill="#FEFEFE" d="M349.369,659.889c-10.823,0-21.648-0.11-32.469,0.062
		c-3.544,0.057-5.045-0.838-4.997-4.718c0.189-14.816,0.18-29.639,0.005-44.456c-0.044-3.736,1.192-4.863,4.874-4.84
		c21.646,0.138,43.293,0.133,64.939,0.009c3.877-0.022,5.298,1.289,5.256,5.213c-0.157,14.485-0.184,28.974,0.013,43.458
		c0.059,4.305-1.688,5.404-5.651,5.335C370.684,659.766,360.025,659.889,349.369,659.889z"/>
	<path fill-rule="evenodd" clip-rule="evenodd" fill="#FEFEFE" d="M466.975,659.888c-10.823,0.001-21.649-0.132-32.469,0.069
		c-4.068,0.075-5.613-1.23-5.558-5.432c0.189-14.317,0.172-28.641,0.008-42.959c-0.046-3.979,1.066-5.665,5.351-5.634
		c21.645,0.159,43.293,0.15,64.939,0c3.806-0.026,4.819,1.302,4.778,4.936c-0.165,14.818-0.151,29.64-0.008,44.458
		c0.033,3.454-1.059,4.682-4.572,4.625C488.622,659.776,477.798,659.888,466.975,659.888z"/>
	<path fill-rule="evenodd" clip-rule="evenodd" fill="#FEFEFE" d="M231.987,467.911c-10.814,0-21.629-0.098-32.441,0.058
		c-3.402,0.049-4.704-0.989-4.668-4.541c0.15-14.972,0.15-29.946,0-44.918c-0.036-3.559,1.281-4.552,4.673-4.535
		c21.627,0.109,43.256,0.11,64.883,0c3.398-0.017,4.704,0.988,4.668,4.54c-0.15,14.972-0.15,29.946,0,44.918
		c0.035,3.558-1.279,4.585-4.674,4.536C253.617,467.814,242.801,467.911,231.987,467.911z"/>
	<path fill-rule="evenodd" clip-rule="evenodd" fill="#FEFEFE" d="M583.943,467.911c-10.814,0-21.629-0.098-32.441,0.058
		c-3.402,0.049-4.704-0.989-4.668-4.541c0.149-14.972,0.149-29.946-0.001-44.918c-0.036-3.559,1.281-4.552,4.674-4.535
		c21.627,0.109,43.256,0.11,64.883,0c3.399-0.017,4.703,0.988,4.668,4.54c-0.15,14.972-0.151,29.947,0,44.918
		c0.036,3.559-1.277,4.585-4.674,4.536C605.572,467.814,594.757,467.911,583.943,467.911z"/>
	<path fill-rule="evenodd" clip-rule="evenodd" fill="#FEFEFE" d="M232.225,510.018c10.647,0,21.297,0.116,31.942-0.064
		c3.606-0.062,4.991,0.979,4.945,4.782c-0.179,14.805-0.176,29.614-0.001,44.419c0.045,3.77-1.28,4.832-4.916,4.811
		c-21.461-0.131-42.923-0.129-64.384-0.002c-3.603,0.021-4.99-0.979-4.944-4.78c0.178-14.805,0.177-29.614,0.001-44.419
		c-0.044-3.77,1.276-4.874,4.916-4.812C210.596,510.136,221.412,510.018,232.225,510.018z"/>
	<path fill-rule="evenodd" clip-rule="evenodd" fill="#FEFEFE" d="M583.97,563.899c-10.813,0-21.63-0.095-32.441,0.056
		c-3.369,0.047-4.733-0.928-4.696-4.513c0.153-14.972,0.149-29.947,0.002-44.919c-0.034-3.524,1.221-4.58,4.646-4.562
		c21.628,0.113,43.256,0.109,64.884,0.003c3.366-0.017,4.731,0.927,4.695,4.512c-0.154,14.972-0.149,29.946-0.002,44.919
		c0.034,3.524-1.217,4.614-4.646,4.564C605.599,563.799,594.783,563.899,583.97,563.899z"/>
	<path fill-rule="evenodd" clip-rule="evenodd" fill="#FEFEFE" d="M231.993,606.006c10.81,0.001,21.622,0.097,32.43-0.056
		c3.385-0.049,4.716,0.96,4.68,4.526c-0.151,14.967-0.148,29.936-0.001,44.902c0.035,3.518-1.208,4.596-4.64,4.567
		c-15.798-0.133-31.6,0.061-47.397-0.097c-13.26-0.132-22.081-9.224-22.118-22.438c-0.025-8.814,0.186-17.635-0.09-26.441
		c-0.128-4.076,1.387-5.11,5.208-5.036C210.703,606.14,221.349,606.006,231.993,606.006z"/>
	<path fill-rule="evenodd" clip-rule="evenodd" fill="#FEFEFE" d="M583.936,606.007c10.832,0,21.665,0.104,32.494-0.061
		c3.468-0.053,4.702,1.095,4.626,4.599c-0.188,8.661-0.468,17.353,0.037,25.988c0.719,12.289-7.621,22.953-22.437,23.271
		c-15.823,0.339-31.66,0.017-47.49,0.132c-3.274,0.024-4.346-1.157-4.32-4.381c0.117-14.997,0.132-29.996-0.01-44.992
		c-0.033-3.476,1.115-4.672,4.605-4.618C562.271,606.113,573.104,606.007,583.936,606.007z"/>
</g>
</svg>
